<?xml version="1.0" encoding="utf-8"?>
<!-- Generator: Adobe Illustrator 16.0.0, SVG Export Plug-In . SVG Version: 6.00 Build 0)  -->
<!DOCTYPE svg PUBLIC "-//W3C//DTD SVG 1.1//EN" "http://www.w3.org/Graphics/SVG/1.1/DTD/svg11.dtd">
<svg version="1.1" id="Layer_1" xmlns="http://www.w3.org/2000/svg" xmlns:xlink="http://www.w3.org/1999/xlink" x="0px" y="0px"
	 width="200px" height="201.02px" viewBox="0 0 200 201.02" enable-background="new 0 0 200 201.02" xml:space="preserve">
<g>
	<path fill="#FFD700" d="M193.334,80.51v-6.666h-6.666v-6.668H180h-6.666V60.51h-6.666H160h-6.666v-6.666v-6.668V40.51h-6.666
		v-6.666v-6.668H140V20.51h-6.666v-6.666h-6.666H120V7.176h-6.666h-6.666H100h-6.666h-6.666H80v6.668h-6.666h-6.666v6.666H60v6.666
		h-6.666v6.668v6.666h-6.666v6.666v6.668H40v6.666h-6.666h-6.666v6.666H20h-6.666v6.668H6.668v6.666H0v6.666v6.668v6.666h6.668
		v6.666h6.666v6.668H20h6.668v6.666h6.666H40v6.666h6.668h6.666H60h6.668h6.666v6.668H80h6.668h6.666H100h6.668h6.666H120h6.668
		v-6.668h6.666H140h6.668h6.666v-6.666H160h6.668h6.666v-6.666H180h6.668v-6.668h6.666v-6.666H200v-6.666v-6.668V80.51H193.334z
		 M166.668,107.176H160h-6.666v-6.666h-6.666v-6.666v-6.668h6.666V80.51H160h6.668v6.666h6.666v6.668v6.666h-6.666V107.176z
		 M26.668,100.51v-6.666v-6.668h6.666V80.51H40h6.668v6.666h6.666v6.668v6.666h-6.666v6.666H40h-6.666v-6.666H26.668z
		 M86.668,113.844v-6.668v-6.666h6.666v-6.666H100h6.668v6.666h6.666v6.666v6.668h-6.666v6.666H100h-6.666v-6.666H86.668z
		 M53.334,47.176H60V40.51v-6.666h6.668v-6.668h6.666V20.51H80h6.668v-6.666h6.666H100h6.668h6.666v6.666H120h6.668v6.666h6.666
		v6.668H140v6.666v6.666h6.668v6.668v6.666v6.666H140v6.668h-6.666h-6.666H120v-6.668h-6.666v6.668h-6.666v-6.668V60.51h6.666
		v-6.666H120v6.666v6.666h6.668V60.51v-6.666v-6.668H120V40.51h-6.666v-6.666h-6.666H100h-6.666h-6.666v6.666H80v6.666h-6.666v6.668
		v6.666v6.666H80V60.51v-6.666h6.668v6.666h6.666v6.666v6.668h-6.666v-6.668H80v6.668h-6.666h-6.666H60v-6.668h-6.666V60.51v-6.666
		V47.176z"/>
	<polygon fill="#FFD700" points="180,160.51 180,153.844 173.334,153.844 173.334,147.176 166.668,147.176 166.668,140.51 
		160,140.51 160,147.176 160,153.844 166.668,153.844 166.668,160.51 173.334,160.51 173.334,167.176 173.334,173.844 180,173.844 
		180,180.51 186.668,180.51 186.668,173.844 186.668,167.176 180,167.176 	"/>
	<polygon fill="#FFD700" points="93.334,153.844 93.334,160.51 93.334,167.176 93.334,173.844 93.334,180.51 93.334,187.176 
		93.334,193.844 100,193.844 106.668,193.844 106.668,187.176 106.668,180.51 106.668,173.844 106.668,167.176 106.668,160.51 
		106.668,153.844 100,153.844 	"/>
	<polygon fill="#FFD700" points="26.668,147.176 26.668,153.844 20,153.844 20,160.51 20,167.176 13.334,167.176 13.334,173.844 
		13.334,180.51 13.334,187.176 20,187.176 20,180.51 20,173.844 26.668,173.844 26.668,167.176 26.668,160.51 33.334,160.51 
		33.334,153.844 33.334,147.176 33.334,140.51 26.668,140.51 	"/>
</g>
</svg>
