<?xml version="1.0" encoding="utf-8"?>
<!-- Generator: Adobe Illustrator 16.0.0, SVG Export Plug-In . SVG Version: 6.00 Build 0)  -->
<!DOCTYPE svg PUBLIC "-//W3C//DTD SVG 1.1//EN" "http://www.w3.org/Graphics/SVG/1.1/DTD/svg11.dtd">
<svg version="1.1" xmlns="http://www.w3.org/2000/svg" xmlns:xlink="http://www.w3.org/1999/xlink" x="0px" y="0px" width="1000px"
	 height="1000px" viewBox="-497.5 -497.5 1000 1000" enable-background="new -497.5 -497.5 1000 1000" xml:space="preserve">
<g id="Layer_1" display="none">
	<path display="inline" d="M25.547-114.102c0-34.086,8.984-69.242,28.422-111.227c6.734-14.453,28.805-54.594,30.078-54.594
		c0.289,0,1.07,6.547,1.461,14.75c0.586,13.859,4.977,36.125,8.883,45.313c1.664,3.906,1.766,3.414,3.813-8.695
		c2.641-15.523,6.25-27.242,16.016-53.227c15.625-42.188,20.313-62.789,20.313-91.016c0-44.531-18.359-79.195-60.352-113.859
		c-5.961-4.984-11.133-8.695-11.43-8.5c-0.188,0.297,0.781,3.125,2.344,6.156c4.203,9.375,7.523,25.969,7.523,38.672
		c0,14.547-4.297,32.32-11.617,47.945c-10.156,21.484-17.188,42.289-20.023,59.18c-3.32,19.141-3.711,19.141-10.938-0.297
		c-6.148-16.594-8.492-33.203-6.742-47.359l1.172-10.25l-3.609,5.859c-5.375,8.391-14.258,33.781-17.484,49.219
		c-1.461,8-2.828,21.969-3.313,34.273l-0.883,20.805l-18.258-24.125c-33.5-44.531-46.781-77.344-46.875-115.43
		c-0.203-21.977,4-37.891,14.641-56.93l5.18-9.086l-6.352,4.688c-19.625,15.43-42.281,41.211-53.906,61.914
		c-11.906,21-19.43,46.578-21.969,73.344c-4.781,52.531,16.016,119.141,54,172.555c3.719,5.18,7.133,9.57,7.719,9.57
		c0.484,0,0-3.516-0.977-7.906c-2.539-10.844-2.539-34.477,0.102-43.852c1.172-4.195,3.516-10.055,5.266-13.086l3.328-5.664
		l4.688,19.141c9.375,36.617,22.266,65.914,40.031,90.336c10.547,14.352,26.375,30.172,35.359,35.156l4.391,2.344V-114.102z"/>
</g>
<g id="Layer_2">
	<g id="XMLID_1_">
		<g>
			<rect x="102.5" y="-264.17" fill="#BA55D3" width="33.33" height="33.34"/>
			<rect x="35.83" y="-397.5" fill="#BA55D3" width="33.34" height="33.33"/>
			<rect x="-130.83" y="-430.83" fill="#BA55D3" width="33.33" height="33.33"/>
			<rect x="-64.17" y="-364.17" fill="#BA55D3" width="33.34" height="33.34"/>
			<rect x="-130.83" y="-297.5" fill="#BA55D3" width="33.33" height="33.33"/>
			<rect x="102.5" y="-297.5" fill="#BA55D3" width="33.33" height="33.33"/>
			<rect x="-64.17" y="-230.83" fill="#BA55D3" width="33.34" height="33.33"/>
			<rect x="-97.5" y="-230.83" fill="#BA55D3" width="33.33" height="33.33"/>
			<rect x="-30.83" y="-164.17" fill="#BA55D3" width="33.33" height="33.34"/>
			<rect x="2.5" y="-130.83" fill="#BA55D3" width="33.33" height="33.33"/>
			<rect x="2.5" y="-164.17" fill="#BA55D3" width="33.33" height="33.34"/>
			<rect x="35.83" y="-497.5" fill="#BA55D3" width="33.34" height="33.33"/>
			<rect x="69.17" y="-497.5" fill="#BA55D3" width="33.33" height="33.33"/>
			<rect x="69.17" y="-464.17" fill="#BA55D3" width="33.33" height="33.34"/>
			<rect x="102.5" y="-430.83" fill="#BA55D3" width="33.33" height="33.33"/>
			<rect x="69.17" y="-430.83" fill="#BA55D3" width="33.33" height="33.33"/>
			<rect x="102.5" y="-330.83" fill="#BA55D3" width="33.33" height="33.33"/>
			<rect x="102.5" y="-364.17" fill="#BA55D3" width="33.33" height="33.34"/>
			<rect x="69.17" y="-397.5" fill="#BA55D3" width="33.33" height="33.33"/>
			<rect x="102.5" y="-397.5" fill="#BA55D3" width="33.33" height="33.33"/>
			<rect x="35.83" y="-364.17" fill="#BA55D3" width="33.34" height="33.34"/>
			<rect x="69.17" y="-364.17" fill="#BA55D3" width="33.33" height="33.34"/>
			<rect x="69.17" y="-330.83" fill="#BA55D3" width="33.33" height="33.33"/>
			<rect x="35.83" y="-264.17" fill="#BA55D3" width="33.34" height="33.34"/>
			<rect x="35.83" y="-330.83" fill="#BA55D3" width="33.34" height="33.33"/>
			<rect x="35.83" y="-297.5" fill="#BA55D3" width="33.34" height="33.33"/>
			<rect x="2.5" y="-364.17" fill="#BA55D3" width="33.33" height="33.34"/>
			<rect x="2.5" y="-330.83" fill="#BA55D3" width="33.33" height="33.33"/>
			<rect x="2.5" y="-297.5" fill="#BA55D3" width="33.33" height="33.33"/>
			<rect x="2.5" y="-264.17" fill="#BA55D3" width="33.33" height="33.34"/>
			<rect x="-30.83" y="-297.5" fill="#BA55D3" width="33.33" height="33.33"/>
			<rect x="2.5" y="-230.83" fill="#BA55D3" width="33.33" height="33.33"/>
			<rect x="2.5" y="-197.5" fill="#BA55D3" width="33.33" height="33.33"/>
			<rect x="-30.83" y="-197.5" fill="#BA55D3" width="33.33" height="33.33"/>
			<rect x="-97.5" y="-264.17" fill="#BA55D3" width="33.33" height="33.34"/>
			<rect x="-64.17" y="-497.5" fill="#BA55D3" width="33.34" height="33.33"/>
			<rect x="-97.5" y="-464.17" fill="#BA55D3" width="33.33" height="33.34"/>
			<rect x="-97.5" y="-430.83" fill="#BA55D3" width="33.33" height="33.33"/>
			<rect x="-97.5" y="-397.5" fill="#BA55D3" width="33.33" height="33.33"/>
			<rect x="-130.83" y="-397.5" fill="#BA55D3" width="33.33" height="33.33"/>
			<rect x="-97.5" y="-364.17" fill="#BA55D3" width="33.33" height="33.34"/>
			<rect x="-130.83" y="-364.17" fill="#BA55D3" width="33.33" height="33.34"/>
			<rect x="-64.17" y="-330.83" fill="#BA55D3" width="33.34" height="33.33"/>
			<rect x="-130.83" y="-330.83" fill="#BA55D3" width="33.33" height="33.33"/>
			<rect x="-97.5" y="-330.83" fill="#BA55D3" width="33.33" height="33.33"/>
			<rect x="-30.83" y="-264.17" fill="#BA55D3" width="33.33" height="33.34"/>
			<rect x="-30.83" y="-230.83" fill="#BA55D3" width="33.33" height="33.33"/>
			<rect x="-64.17" y="-264.17" fill="#BA55D3" width="33.34" height="33.34"/>
			<rect x="-64.17" y="-297.5" fill="#BA55D3" width="33.34" height="33.33"/>
			<rect x="-97.5" y="-297.5" fill="#BA55D3" width="33.33" height="33.33"/>
		</g>
		<g>
		</g>
	</g>
</g>
</svg>
