<?xml version="1.0" encoding="utf-8"?>
<svg version="1.1" xmlns="http://www.w3.org/2000/svg" class="firetheif" xmlns:xlink="http://www.w3.org/1999/xlink" x="0px" y="0px" width="576px"
	 height="576px" viewBox="0 0 576 576" xml:space="preserve">
<g id="Layer_1">
	<g>
	</g>
	<path fill="#3498db" d="M367.426,212.673c0.054,0.099,0.107,0.193,0.162,0.292
		c-0.056-0.519-0.1-1.028-0.162-1.552C367.426,211.833,367.426,212.253,367.426,212.673z"/>
	<path fill="#3498db" d="M243.691,326.453c-4.602-42.639,21.482-71.537,39.738-100.183
		c15.06-23.631,39.375-50.554,36.52-83.259c-3.077-35.25-14.594-48.823-32.41-76.102c27.045,47.778-25.635,81.15-50.369,121.516
		c-17.816,29.075-41.454,58.103-45.042,91.352c-5.469,50.67,27.124,80.713,59.144,100.169c4.401,2.425,19.007,6.467,13.749-0.514
		C254.331,366.647,245.112,339.615,243.691,326.453z"/>
	<path fill="#3498db" d="M265.97,376.612c0.449,0.06,0.897,0.124,1.347,0.178
		c-0.099-0.116-0.198-0.241-0.296-0.358C266.669,376.495,266.318,376.556,265.97,376.612z"/>
	<path fill="#3498db" d="M367.588,237.965c11.412,92.571-60.004,68.879-57.949,142.226
		c0.224,2.575,0.235,3.847,1.994,1.652c19.818-38.782,72.021-39.834,72.836-94.971C384.787,265.424,375.793,252.987,367.588,237.965
		z"/>
	<path fill="#3498db" d="M334.558,157.214c32.866,40.601,7.011,107.119-17.043,140.366
		c-15.535,21.473-39.207,44.387-29.564,71.427c-13.962-11.597-19.711-33.577-10.608-56.29
		C293.812,271.628,348.682,211.374,334.558,157.214z"/>
</g>
<g id="Layer_2">
	<path fill="#3498db" d="M491.647,84.354C437.25,29.958,364.927,0,288,0
		C211.073,0,138.75,29.958,84.354,84.354S0,211.072,0,288c0,76.928,29.958,149.251,84.354,203.647
		C138.75,546.042,211.073,576,288,576c76.927,0,149.25-29.957,203.646-84.353c54.396-54.396,84.352-126.72,84.352-203.647
		C575.999,211.072,546.042,138.75,491.647,84.354z M398.925,511.05v-47.336l89.554-89.554v-85.353h-24.28v62.073l-65.645,65.799
		v-28.897l33.09-32.785v-20.646l-0.06-14.482l-17.815,17.482l-69.173,67.693v48.985v76.633c-18.188,4.241-37.135,6.488-56.596,6.488
		c-19.462,0-38.409-2.248-56.598-6.488v-76.633v-48.985l-69.173-67.693l-17.875-17v34.646l33.09,32.785v28.897L111.8,350.881
		v-62.073h-5.712h-7.077H87.52v22.28v63.072l89.554,89.554v47.335C95.211,470.172,38.849,385.55,38.849,288
		C38.849,150.617,150.618,38.849,288,38.849c137.382,0,249.151,111.768,249.151,249.151
		C537.152,385.551,480.789,470.173,398.925,511.05z"/>
</g>
</svg>
