<?xml version="1.0" encoding="utf-8"?>
<!-- Generator: Adobe Illustrator 16.0.0, SVG Export Plug-In . SVG Version: 6.00 Build 0)  -->
<!DOCTYPE svg PUBLIC "-//W3C//DTD SVG 1.1//EN" "http://www.w3.org/Graphics/SVG/1.1/DTD/svg11.dtd">
<svg version="1.1" id="Layer_1" xmlns="http://www.w3.org/2000/svg" xmlns:xlink="http://www.w3.org/1999/xlink" x="0px" y="0px"
	 width="1000px" height="1000px" viewBox="0 0 1000 1000" enable-background="new 0 0 1000 1000" xml:space="preserve">
<g>
	<path fill="#00FFFF" d="M666.77,733.43v-0.199V700.1V699.9V666.77v-0.199V633.43h33.329V600.1V599.9V566.77v-0.199v-33.34v-66.46
		v-33.34v-0.2V400.1v-0.2v-33.33H666.77v-33.14v-0.2V300.1v-0.2v-33.33h-33.34v-33.14v-0.2V200.1v-0.2v-33.33h-33.331v-33.14v-0.2
		V99.9H566.77V66.57h-33.34V33.43v-0.2V-0.1h-33.331H499.9h-33.331v33.33v0.2v33.14H433.23V99.9H399.9v33.33v0.2v33.14h-33.331
		v33.33v0.2v33.13v0.2v33.14H333.23v33.33v0.2v33.13v0.2v33.14H299.9v33.33v0.2v33.13v0.2v33.34v66.46v33.34v0.199V599.9v0.199
		v33.33h33.33v33.141v0.199V699.9v0.199v33.131v0.199v33.34h33.339V799.9v0.199v33.33H399.9v33.34h33.33v33.33h33.54v-33.33v-0.199
		V833.43v-0.199V800.1V799.9V766.77v-0.199V733.43v-0.199V700.1V699.9V666.77h33.13h0.199h33.131V699.9v0.199v33.131v0.199v33.141
		v0.199V799.9v0.199v33.131v0.199v33.141v0.199v33.33h33.539v-33.33h33.329v-33.34h33.331V800.1V799.9V766.77h33.34V733.43z
		 M400.099,233.43h33.331V200.1v-0.2v-33.13h33.34v-33.34v-0.2V100.1h33.13h0.199h33.131v33.13v0.2v33.34h33.339v33.33H599.9v33.13
		v0.2v33.14h-33.331v33.33h-33.14h-0.199h-33.131H499.9h-33.13h-0.201H433.43v-33.33h-33.331V233.43z"/>
	<polygon fill="#00FFFF" points="833.429,733.23 833.429,699.9 800.098,699.9 799.899,699.9 766.77,699.9 766.77,666.57 
		733.23,666.57 733.23,699.9 699.9,699.9 699.9,733.23 699.9,733.43 699.9,766.57 699.9,766.77 699.9,799.9 699.9,800.1 
		699.9,833.23 666.569,833.23 666.569,866.77 699.9,866.77 699.9,900.1 733.23,900.1 733.23,933.429 766.569,933.429 
		766.77,933.429 799.899,933.429 799.899,966.77 833.229,966.77 833.229,1000.1 866.77,1000.1 866.77,966.77 866.77,966.57 
		866.77,933.429 866.77,933.229 866.77,900.1 866.77,899.9 866.77,866.77 866.77,866.57 866.77,833.43 866.77,833.23 866.77,800.1 
		866.77,799.9 866.77,766.77 866.77,766.57 866.77,733.23 	"/>
	<polygon fill="#00FFFF" points="300.099,800.1 300.099,799.9 300.099,766.77 300.099,766.57 300.099,733.43 300.099,733.23 
		300.099,699.9 266.77,699.9 266.77,666.57 233.23,666.57 233.23,699.9 200.099,699.9 199.9,699.9 166.569,699.9 166.569,733.23 
		133.23,733.23 133.23,766.57 133.23,766.77 133.23,799.9 133.23,800.1 133.23,833.23 133.23,833.43 133.23,866.57 133.23,866.77 
		133.23,899.9 133.23,900.1 133.23,933.229 133.23,933.429 133.23,966.57 133.23,966.77 133.23,1000.1 166.77,1000.1 166.77,966.77 
		200.099,966.77 200.099,933.429 233.23,933.429 233.43,933.429 266.77,933.429 266.77,900.1 300.099,900.1 300.099,866.77 
		333.43,866.77 333.43,833.23 300.099,833.23 	"/>
</g>
</svg>
