<?xml version="1.0" encoding="utf-8"?>
<!-- Generator: Adobe Illustrator 16.0.0, SVG Export Plug-In . SVG Version: 6.00 Build 0)  -->
<!DOCTYPE svg PUBLIC "-//W3C//DTD SVG 1.1//EN" "http://www.w3.org/Graphics/SVG/1.1/DTD/svg11.dtd">
<svg version="1.1" id="Layer_1" xmlns="http://www.w3.org/2000/svg" xmlns:xlink="http://www.w3.org/1999/xlink" x="0px" y="0px"
	 width="198.986px" height="200px" viewBox="0 0 198.986 200" enable-background="new 0 0 198.986 200" xml:space="preserve">
<g>
	<polygon fill="#FF4500" points="92.525,60.299 99.193,60.299 99.793,60.299 106.459,60.299 106.459,53.033 99.793,53.033 
		99.193,53.033 92.525,53.033 	"/>
	<path fill="#FF4500" d="M193.125,159.701h-0.6h-6.066v-6.667h-6.666h-0.6h-6.066h-0.6h-6.068h-0.6h-6.066v-6.666h-6.666v-6.069
		v-0.598v-6.07v-0.598v-6.067v-0.598v-6.07v-0.597v-6.07v-0.598v-6.067v-0.598V100.3v-0.599v-6.069v-0.599v-6.066v-0.599v-6.069
		v-0.598v-6.069v-0.599v-6.066v-0.599V59.7h-6.668v-6.068v-0.599v-6.665h-6.666v-6.069h6.666v-6.667v-0.599v-6.067v-0.599v-6.068
		h6.668v-6.668h6.666V6.367h-6.666V-0.3h-7.268v6.667h-6.666v6.666v0.598V19.7h-6.666v6.667v0.599v6.067h-6.068v-6.666h-6.664h-0.6
		h-6.068V19.7h-6.668h-0.6h-6.066h-0.6h-6.066h-0.602h-6.666v6.667h-6.066h-0.6h-6.668v6.666h-6.066v-6.067v-0.599V19.7h-6.666
		v-6.069v-0.598V6.367h-6.666V-0.3h-7.266v6.667h-6.668v7.264h6.668v6.668h6.664v6.068v0.599v6.067v0.599v6.667h6.668v6.069h-6.668
		v6.665v0.599V59.7h-6.664v6.668v0.599v6.066v0.599v6.069v0.598v6.069v0.599v6.066v0.599v6.069v0.599v6.068v0.598v6.067v0.598v6.07
		v0.597v6.07v0.598v6.067v0.598v6.07v0.598v6.069h-6.668v6.666h-6.066h-0.602h-6.064h-0.602h-6.666v6.667h-6.066h-0.602H6.461H5.859
		h-6.666v6.667v0.598v6.666h6.666h0.602h6.064h0.602h6.066h0.6h6.668v-6.666h6.064h0.602h6.066h0.6h6.668v-6.667h6.064h0.602h6.066
		h0.6h6.066v6.069h-6.666v6.666h-6.668v6.667h-6.664v7.265h6.664h0.602h6.066h0.6h6.666v-6.667h6.668v-6.667h6.666v-6.666h6.066
		v6.666h6.666v6.069v0.598v6.07v0.597v6.666h6.668v6.668h6.666h0.6h6.668v-6.668v-0.598v-6.665h-6.668v-6.07v-0.598v-6.069v-0.598
		v-6.068h6.068v6.666h6.668v6.667h6.664h0.6h6.068v6.667h6.666h0.6h6.066h0.6h6.668v-7.265h-6.668v-6.667h-6.666v-6.666h-6.666
		v-6.069h6.066h0.6h6.066h0.6h6.068h0.6h6.066v6.667h6.666h0.6h6.068v6.666h6.666h0.6h6.068h0.598h6.066h0.6h6.668v-6.666v-0.598
		v-6.667H193.125z M59.793,93.033v-6.066v-0.599v-6.069h6.066v6.069v0.599v6.665h7.268v-6.665v-0.599v-6.667h-6.668v-6.069h6.066
		h0.602h6.066v6.667h6.666v6.069v0.599v6.066h-6.666v6.668h-6.066h-0.602h-6.066h-0.6h-6.066v-6.069V93.033z M139.193,86.967v6.066
		v0.599v6.069h-6.066h-0.6h-6.068h-0.6h-6.064v-6.668h-6.668v-6.066v-0.599v-6.069h6.668v-6.667h6.064h0.6h6.068v6.069h-6.668v6.667
		v0.599v6.665h7.268v-6.665v-0.599v-6.069h6.066v6.069V86.967z M99.193,40.299h0.6h6.066v6.667h6.668v6.067v0.599V59.7v0.599v6.069
		h-6.668v6.665h-6.066h-0.6h-6.066v-6.665h-6.668v-6.069V59.7v-6.068v-0.599v-6.067h6.668v-6.667H99.193z"/>
</g>
</svg>
