<?xml version="1.0" encoding="utf-8"?>
<!-- Generator: Adobe Illustrator 16.0.0, SVG Export Plug-In . SVG Version: 6.00 Build 0)  -->
<!DOCTYPE svg PUBLIC "-//W3C//DTD SVG 1.1//EN" "http://www.w3.org/Graphics/SVG/1.1/DTD/svg11.dtd">
<svg version="1.1" id="Layer_1" xmlns="http://www.w3.org/2000/svg" xmlns:xlink="http://www.w3.org/1999/xlink" x="0px" y="0px"
	 width="200px" height="201.02px" viewBox="0 0 200 201.02" enable-background="new 0 0 200 201.02" xml:space="preserve">
<g>
	<polygon fill="#00FF00" points="193.332,107.176 193.332,100.51 193.332,93.844 186.666,93.844 180,93.844 173.332,93.844 
		173.332,100.51 180,100.51 180,107.176 186.666,107.176 186.666,113.844 186.666,120.51 186.666,127.176 180,127.176 
		173.332,127.176 173.332,133.844 166.666,133.844 166.666,140.51 160,140.51 153.332,140.51 146.666,140.51 140,140.51 
		133.332,140.51 126.666,140.51 120,140.51 113.332,140.51 113.332,147.176 106.666,147.176 100,147.176 93.334,147.176 
		86.668,147.176 86.668,140.51 80,140.51 73.334,140.51 66.668,140.51 60,140.51 53.334,140.51 46.668,140.51 40,140.51 
		33.334,140.51 33.334,133.844 26.668,133.844 26.668,127.176 20,127.176 13.334,127.176 13.334,120.51 13.334,113.844 
		13.334,107.176 20,107.176 20,100.51 26.668,100.51 26.668,93.844 20,93.844 13.334,93.844 6.668,93.844 6.668,100.51 
		6.668,107.176 0,107.176 0,113.844 0,120.51 0,127.176 6.668,127.176 6.668,133.844 6.668,140.51 13.334,140.51 20,140.51 
		26.668,140.51 26.668,147.176 26.668,153.844 26.668,160.51 20,160.51 20,167.176 20,173.844 20,180.51 20,187.176 26.668,187.176 
		33.334,187.176 33.334,180.51 33.334,173.844 33.334,167.176 40,167.176 40,160.51 40,153.844 46.668,153.844 53.334,153.844 
		60,153.844 66.668,153.844 73.334,153.844 80,153.844 86.668,153.844 86.668,160.51 93.334,160.51 93.334,167.176 93.334,173.844 
		93.334,180.51 93.334,187.176 93.334,193.844 100,193.844 106.666,193.844 106.666,187.176 106.666,180.51 106.666,173.844 
		106.666,167.176 106.666,160.51 113.332,160.51 113.332,153.844 120,153.844 126.666,153.844 133.332,153.844 140,153.844 
		146.666,153.844 153.332,153.844 160,153.844 160,160.51 160,167.176 166.666,167.176 166.666,173.844 166.666,180.51 
		166.666,187.176 173.332,187.176 180,187.176 180,180.51 180,173.844 180,167.176 180,160.51 173.332,160.51 173.332,153.844 
		173.332,147.176 173.332,140.51 180,140.51 186.666,140.51 193.332,140.51 193.332,133.844 193.332,127.176 200,127.176 
		200,120.51 200,113.844 200,107.176 	"/>
	<polygon fill="#00FF00" points="26.668,113.844 26.668,120.51 33.334,120.51 33.334,127.176 40,127.176 46.668,127.176 
		53.334,127.176 53.334,133.844 60,133.844 66.668,133.844 73.334,133.844 80,133.844 86.668,133.844 93.334,133.844 100,133.844 
		106.666,133.844 113.332,133.844 120,133.844 126.666,133.844 133.332,133.844 140,133.844 146.666,133.844 146.666,127.176 
		153.332,127.176 160,127.176 166.666,127.176 166.666,120.51 173.332,120.51 173.332,113.844 173.332,107.176 173.332,100.51 
		166.666,100.51 166.666,93.844 166.666,87.176 160,87.176 160,80.51 153.332,80.51 153.332,73.844 146.666,73.844 146.666,67.176 
		140,67.176 133.332,67.176 133.332,60.51 126.666,60.51 120,60.51 113.332,60.51 106.666,60.51 106.332,60.51 106.332,53.844 
		106.332,47.176 106.332,40.51 113,40.51 113,33.844 119.666,33.844 119.666,27.176 119.666,20.51 113,20.51 113,13.844 
		106.332,13.844 106.332,7.176 100.334,7.176 99.666,7.176 93.668,7.176 93.668,13.844 87,13.844 87,20.51 80.334,20.51 
		80.334,27.176 80.334,33.844 87,33.844 87,40.51 93.668,40.51 93.668,47.176 93.668,53.844 93.668,60.51 93.334,60.51 
		86.668,60.51 80,60.51 73.334,60.51 66.668,60.51 66.668,67.176 60,67.176 53.334,67.176 53.334,73.844 46.668,73.844 
		46.668,80.51 40,80.51 40,87.176 33.334,87.176 33.334,93.844 33.334,100.51 26.668,100.51 26.668,107.176 	"/>
</g>
</svg>
